<svg width="61" height="61" viewBox="0 0 61 61" fill="none" xmlns="http://www.w3.org/2000/svg">
<path d="M30.5 45.75C34.5446 45.75 38.4235 44.1433 41.2834 41.2834C44.1433 38.4235 45.75 34.5446 45.75 30.5C45.75 26.4554 44.1433 22.5766 41.2834 19.7166C38.4235 16.8567 34.5446 15.25 30.5 15.25C26.4554 15.25 22.5766 16.8567 19.7166 19.7166C16.8567 22.5766 15.25 26.4554 15.25 30.5C15.25 34.5446 16.8567 38.4235 19.7166 41.2834C22.5766 44.1433 26.4554 45.75 30.5 45.75ZM30.5 0C31.0056 0 31.4904 0.200837 31.8479 0.558328C32.2054 0.915819 32.4062 1.40068 32.4062 1.90625V9.53125C32.4062 10.0368 32.2054 10.5217 31.8479 10.8792C31.4904 11.2367 31.0056 11.4375 30.5 11.4375C29.9944 11.4375 29.5096 11.2367 29.1521 10.8792C28.7946 10.5217 28.5938 10.0368 28.5938 9.53125V1.90625C28.5938 1.40068 28.7946 0.915819 29.1521 0.558328C29.5096 0.200837 29.9944 0 30.5 0ZM30.5 49.5625C31.0056 49.5625 31.4904 49.7633 31.8479 50.1208C32.2054 50.4783 32.4062 50.9632 32.4062 51.4688V59.0938C32.4062 59.5993 32.2054 60.0842 31.8479 60.4417C31.4904 60.7992 31.0056 61 30.5 61C29.9944 61 29.5096 60.7992 29.1521 60.4417C28.7946 60.0842 28.5938 59.5993 28.5938 59.0938V51.4688C28.5938 50.9632 28.7946 50.4783 29.1521 50.1208C29.5096 49.7633 29.9944 49.5625 30.5 49.5625ZM61 30.5C61 31.0056 60.7992 31.4904 60.4417 31.8479C60.0842 32.2054 59.5993 32.4062 59.0938 32.4062H51.4688C50.9632 32.4062 50.4783 32.2054 50.1208 31.8479C49.7633 31.4904 49.5625 31.0056 49.5625 30.5C49.5625 29.9944 49.7633 29.5096 50.1208 29.1521C50.4783 28.7946 50.9632 28.5938 51.4688 28.5938H59.0938C59.5993 28.5938 60.0842 28.7946 60.4417 29.1521C60.7992 29.5096 61 29.9944 61 30.5ZM11.4375 30.5C11.4375 31.0056 11.2367 31.4904 10.8792 31.8479C10.5217 32.2054 10.0368 32.4062 9.53125 32.4062H1.90625C1.40068 32.4062 0.915819 32.2054 0.558328 31.8479C0.200837 31.4904 0 31.0056 0 30.5C0 29.9944 0.200837 29.5096 0.558328 29.1521C0.915819 28.7946 1.40068 28.5938 1.90625 28.5938H9.53125C10.0368 28.5938 10.5217 28.7946 10.8792 29.1521C11.2367 29.5096 11.4375 29.9944 11.4375 30.5ZM52.0673 8.93269C52.4247 9.29016 52.6254 9.77494 52.6254 10.2804C52.6254 10.7859 52.4247 11.2706 52.0673 11.6281L46.6764 17.0228C46.4992 17.1998 46.2888 17.3401 46.0574 17.4358C45.8259 17.5315 45.5778 17.5807 45.3274 17.5805C44.8215 17.5801 44.3365 17.3788 43.9791 17.0209C43.8021 16.8437 43.6618 16.6333 43.5661 16.4018C43.4704 16.1704 43.4212 15.9223 43.4214 15.6718C43.4218 15.166 43.6231 14.681 43.981 14.3236L49.3719 8.93269C49.7293 8.57532 50.2141 8.37456 50.7196 8.37456C51.2251 8.37456 51.7098 8.57532 52.0673 8.93269ZM17.019 43.981C17.3764 44.3385 17.5771 44.8232 17.5771 45.3287C17.5771 45.8342 17.3764 46.319 17.019 46.6764L11.6281 52.0673C11.2686 52.4146 10.7871 52.6067 10.2873 52.6023C9.78745 52.598 9.30934 52.3975 8.95591 52.0441C8.60247 51.6907 8.402 51.2125 8.39765 50.7127C8.39331 50.2129 8.58545 49.7314 8.93269 49.3719L14.3236 43.981C14.681 43.6236 15.1658 43.4229 15.6713 43.4229C16.1768 43.4229 16.6615 43.6236 17.019 43.981ZM52.0673 52.0673C51.7098 52.4247 51.2251 52.6254 50.7196 52.6254C50.2141 52.6254 49.7293 52.4247 49.3719 52.0673L43.981 46.6764C43.6338 46.3169 43.4416 45.8354 43.446 45.3356C43.4503 44.8358 43.6508 44.3577 44.0042 44.0042C44.3577 43.6508 44.8358 43.4503 45.3356 43.446C45.8354 43.4416 46.3169 43.6338 46.6764 43.981L52.0673 49.3719C52.4247 49.7293 52.6254 50.2141 52.6254 50.7196C52.6254 51.2251 52.4247 51.7098 52.0673 52.0673ZM17.019 17.0228C16.6615 17.3802 16.1768 17.5809 15.6713 17.5809C15.1658 17.5809 14.681 17.3802 14.3236 17.0228L8.93269 11.6281C8.75062 11.4523 8.6054 11.2419 8.5055 11.0094C8.40559 10.7768 8.353 10.5267 8.3508 10.2735C8.3486 10.0204 8.39684 9.76942 8.49268 9.53515C8.58853 9.30088 8.73008 9.08804 8.90906 8.90906C9.08804 8.73008 9.30088 8.58853 9.53515 8.49268C9.76942 8.39684 10.0204 8.3486 10.2735 8.3508C10.5267 8.353 10.7768 8.40559 11.0094 8.5055C11.2419 8.6054 11.4523 8.75062 11.6281 8.93269L17.019 14.3236C17.1965 14.5006 17.3374 14.711 17.4335 14.9426C17.5296 15.1742 17.579 15.4225 17.579 15.6732C17.579 15.9239 17.5296 16.1722 17.4335 16.4038C17.3374 16.6354 17.1965 16.8457 17.019 17.0228Z" fill="#EAB308"/>
</svg>
