<svg fill="#22c55e" viewBox="0 0 32 32" version="1.1" xmlns="http://www.w3.org/2000/svg"><g id="SVGRepo_bgCarrier" stroke-width="0"></g><g id="SVGRepo_tracerCarrier" stroke-linecap="round" stroke-linejoin="round"></g><g id="SVGRepo_iconCarrier"> <title>alt-charge-battery</title> <path d="M0 19.936q0 2.496 1.76 4.256t4.256 1.76h8.224l-0.448 2.016 1.504-2.016h8.704q2.496 0 4.256-1.76t1.76-4.256h1.984v-8h-1.984q0-2.464-1.76-4.224t-4.256-1.76h-6.4l0.416-1.92-1.408 1.92h-10.592q-2.496 0-4.256 1.76t-1.76 4.224v8zM4 19.936v-8q0-0.8 0.576-1.408t1.44-0.576h7.648l-5.824 7.936h8.16l-0.896 4.064h-9.088q-0.832 0-1.44-0.576t-0.576-1.44zM16 13.92l0.8-3.968h7.2q0.832 0 1.408 0.576t0.608 1.408v8q0 0.832-0.608 1.44t-1.408 0.576h-5.792l5.888-8.032h-8.096z"></path> </g></svg>